<?xml version="1.0" encoding="utf-8"?>
<!-- Generator: Adobe Illustrator 27.2.0, SVG Export Plug-In . SVG Version: 6.00 Build 0)  -->
<svg version="1.1" xmlns="http://www.w3.org/2000/svg" xmlns:xlink="http://www.w3.org/1999/xlink" x="0px" y="0px"
	 viewBox="0 0 500 500" style="enable-background:new 0 0 500 500;" xml:space="preserve">
<style type="text/css">
	.st0{fill:#1E5128;stroke:#1E5128;stroke-width:20;stroke-miterlimit:10;}
	.st1{fill:#4D9F3C;stroke:#1E5128;stroke-width:20;stroke-miterlimit:10;}
	.st2{fill:#D7E4A8;stroke:#1E5128;stroke-width:19;stroke-miterlimit:10;}
</style>
<g id="Camada_6">
	<path class="st0" d="M394.59,261.19c2.95-6.02,4.59-12.8,4.59-19.96V185.8c0-25.17-20.4-45.57-45.57-45.57h-218.1
		c-25.17,0-45.58,20.4-45.58,45.57v55.43c0,25.17,20.41,45.58,45.58,45.58h38.47"/>
	<g id="Camada_5">
		<path class="st1" d="M394.59,232.84c2.95-6.02,4.59-12.8,4.59-19.96v-55.43c0-25.17-20.4-45.57-45.57-45.57h-218.1
			c-25.17,0-45.58,20.4-45.58,45.57v55.43c0,25.17,20.41,45.58,45.58,45.58h38.47"/>
	</g>
</g>
<g id="Camada_4">
	<path class="st0" d="M410.43,271.31c4.34,4.06,7.9,8.98,10.38,14.49c2.61,5.76,4.06,12.16,4.06,18.9v1.46v53.98
		c0,25.17-20.24,45.57-45.21,45.57H176.21c-24.97,0-45.21-20.4-45.21-45.57V304.7c0-14.28,6.52-27.04,16.73-35.38"/>
</g>
<g id="Camada_3">
	<path class="st2" d="M213.55,179.29l-75.96,103.95c-6.97,9.57-8.02,22.09-2.68,32.68c5.33,10.59,15.98,17.17,27.77,17.17h231.9
		c11.8,0,22.43-6.56,27.77-17.17c5.33-10.61,4.3-23.11-2.68-32.68l-42.63-58.34c-11.84-16.22-38.29-16.22-50.13,0l-14.93,20.42
		l-48.26-66.03c-11.84-16.2-38.29-16.2-50.13,0H213.55z"/>
</g>
<g id="Camada_1">
	<g id="Camada_2">
	</g>
</g>
</svg>
